{"title":"Birdsong Part 2 2012 BRRip Ac3 Xvid ANALOG","uid":7103621,"size":1496903774,"categoryP":"video","categoryS":"movies","magnet":"?xt=urn:btih:4449e7256363eb345d88758a03ee93cb6cde0ff5&amp;dn=Birdsong+Part+2+2012+BRRip+Ac3+Xvid+ANALOG&amp;tr=udp%3A%2F%2Ftracker.openbittorrent.com%3A80&amp;tr=udp%3A%2F%2Fopen.demonii.com%3A1337&amp;tr=udp%3A%2F%2Ftracker.coppersurfer.tk%3A6969&amp;tr=udp%3A%2F%2Fexodus.desync.com%3A6969","seeders":1,"leechers":0,"uploader":".BONE.","files":8,"time":1331785087,"description":"As an English soldier fights in the horrific trenches of northern France, he is haunted by the memories of his forbidden love affair with a French woman. \n &lt;a href=&quot;\nhttp://www.imdb.com/title/tt1127876/&quot; rel=&quot;nofollow&quot; target=&quot;_NEW&quot;&gt;\nhttp://www.imdb.com/title/tt1127876/&lt;/a&gt;\n\nComplete name : C:UsersrootDesktopBirdsong.Part.2.2012.BRRip.Ac3.Xvid.ANALOGB.P2.2012.BRR.ANALOG.avi\nFormat : AVI\nFormat/Info : Audio Video Interleave\nFormat profile : OpenDML\nFile size : 1.38 GiB\nDuration : 1h 20mn\nOverall bit rate : 2 451 Kbps\nWriting library : VirtualDub build 32842/release\n\nVideo\nID : 0\nFormat : MPEG-4 Visual\nFormat profile : Advanced Simple@L5\nFormat settings, BVOP : 2\nFormat settings, QPel : No\nFormat settings, GMC : No warppoints\nFormat settings, Matrix : Default (H.263)\nMuxing mode : Packed bitstream\nCodec ID : XVID\nCodec ID/Hint : XviD\nDuration : 1h 20mn\nBit rate : 1 992 Kbps\nWidth : 720 pixels\nHeight : 400 pixels\nDisplay aspect ratio : 16:9\nFrame rate : 25.000 fps\nColor space : YUV\nChroma subsampling : 4:2:0\nBit depth : 8 bits\nScan type : Progressive\nCompression mode : Lossy\nBits/(Pixel*Frame) : 0.277\nStream size : 1.12 GiB (81%)\nWriting library : XviD 58\n\nAudio\nID : 1\nFormat : AC-3\nFormat/Info : Audio Coding 3\nMode extension : CM (complete main)\nCodec ID : 2000\nDuration : 1h 20mn\nBit rate mode : Constant\nBit rate : 448 Kbps\nChannel(s) : 6 channels\nChannel positions : Front: L C R, Side: L R, LFE\nSampling rate : 48.0 KHz\nBit depth : 16 bits\nCompression mode : Lossy\nStream size : 258 MiB (18%)\nAlignment : Aligned on interleaves\nInterleave, duration : 40 ms (1.00 video frame)\nInterleave, preload duration : 512 ms\nSubs : English/hardcoded/embed when needed\nSample : Yes\nSource : 1080p HDC THANX ","torrent":{"xt":"urn:btih:4449e7256363eb345d88758a03ee93cb6cde0ff5","amp;dn":"Birdsong+Part+2+2012+BRRip+Ac3+Xvid+ANALOG","amp;tr":["udp%3A%2F%2Ftracker.openbittorrent.com%3A80","udp%3A%2F%2Fopen.demonii.com%3A1337","udp%3A%2F%2Ftracker.coppersurfer.tk%3A6969","udp%3A%2F%2Fexodus.desync.com%3A6969"],"infoHash":"4449e7256363eb345d88758a03ee93cb6cde0ff5","infoHashBuffer":{"type":"Buffer","data":[68,73,231,37,99,99,235,52,93,136,117,138,3,238,147,203,108,222,15,245]},"announce":[],"urlList":[]}}